<?xml version="1.0" encoding="UTF-8" standalone="no"?>
<!DOCTYPE svg PUBLIC "-//W3C//DTD SVG 1.1//EN" "http://www.w3.org/Graphics/SVG/1.1/DTD/svg11.dtd">
<svg version="1.1" xmlns="http://www.w3.org/2000/svg" xmlns:xlink="http://www.w3.org/1999/xlink" preserveAspectRatio="xMidYMid meet" viewBox="136.091717701954 112.42592592592592 302.0357434828846 330.33333333333337" width="295.04" height="323.33"><defs><path d="M192.93 185.93C192.93 200.64 180.98 212.59 166.26 212.59C151.54 212.59 139.59 200.64 139.59 185.93C139.59 171.21 151.54 159.26 166.26 159.26C180.98 159.26 192.93 171.21 192.93 185.93Z" id="a6Iygnpa2i"></path><path d="M312.86 142.59C312.86 157.31 300.92 169.26 286.2 169.26C271.48 169.26 259.53 157.31 259.53 142.59C259.53 127.87 271.48 115.93 286.2 115.93C300.92 115.93 312.86 127.87 312.86 142.59Z" id="l1BFUM4W8x"></path><path d="M259.53 143.22L192.93 185.93" id="abASMF31Q"></path><path d="M434.63 275.93C434.63 290.64 422.68 302.59 407.96 302.59C393.24 302.59 381.29 290.64 381.29 275.93C381.29 261.21 393.24 249.26 407.96 249.26C422.68 249.26 434.63 261.21 434.63 275.93Z" id="gyNtIwaU0"></path><path d="M381.29 275.93L312.86 142.59" id="gyZ9Z47X5"></path><path d="M312.86 232.59C312.86 247.31 300.92 259.26 286.2 259.26C271.48 259.26 259.53 247.31 259.53 232.59C259.53 217.87 271.48 205.93 286.2 205.93C300.92 205.93 312.86 217.87 312.86 232.59Z" id="abUbJ3l6M"></path><path d="M312.86 322.59C312.86 337.31 300.92 349.26 286.2 349.26C271.48 349.26 259.53 337.31 259.53 322.59C259.53 307.87 271.48 295.93 286.2 295.93C300.92 295.93 312.86 307.87 312.86 322.59Z" id="cVeiQefG6"></path><path d="M312.86 412.59C312.86 427.31 300.92 439.26 286.2 439.26C271.48 439.26 259.53 427.31 259.53 412.59C259.53 397.87 271.48 385.93 286.2 385.93C300.92 385.93 312.86 397.87 312.86 412.59Z" id="e7sySTdob"></path><path d="M192.93 275.93C192.93 290.64 180.98 302.59 166.26 302.59C151.54 302.59 139.59 290.64 139.59 275.93C139.59 261.21 151.54 249.26 166.26 249.26C180.98 249.26 192.93 261.21 192.93 275.93Z" id="a1oeoSzuZ4"></path><path d="M192.93 365.93C192.93 380.64 180.98 392.59 166.26 392.59C151.54 392.59 139.59 380.64 139.59 365.93C139.59 351.21 151.54 339.26 166.26 339.26C180.98 339.26 192.93 351.21 192.93 365.93Z" id="c1e2vBhAFc"></path><path d="M259.53 232.59L192.93 275.93" id="e2D9JSIvOZ"></path><path d="M259.53 322.59L192.93 275.93" id="a4gQIL4bky"></path><path d="M259.53 320L192.93 185.93" id="bA613aZQD"></path><path d="M259.53 412.59L192.93 365.93" id="i1K5yS3LVi"></path><path d="M381.29 275.93L312.86 232.59" id="fddi6Rsp7"></path><path d="M381.29 275.93L312.86 322.59" id="ezUFWhYpX"></path><path d="M381.29 275.93L312.86 412.59" id="cvELO44fZ"></path><path d="M259.53 320L192.93 365.93" id="a2aejMdiDx"></path></defs><g><g><use xlink:href="#a6Iygnpa2i" opacity="1" fill="#2fb1ab" fill-opacity="0"></use><g><use xlink:href="#a6Iygnpa2i" opacity="1" fill-opacity="0" stroke="#ffffff" stroke-width="7" stroke-opacity="1"></use></g></g><g><use xlink:href="#l1BFUM4W8x" opacity="1" fill="#2eb1aa" fill-opacity="0"></use><g><use xlink:href="#l1BFUM4W8x" opacity="1" fill-opacity="0" stroke="#ffffff" stroke-width="7" stroke-opacity="1"></use></g></g><g><g><use xlink:href="#abASMF31Q" opacity="1" fill-opacity="0" stroke="#ffffff" stroke-width="7" stroke-opacity="1"></use></g></g><g><use xlink:href="#gyNtIwaU0" opacity="1" fill="#2eb1aa" fill-opacity="0"></use><g><use xlink:href="#gyNtIwaU0" opacity="1" fill-opacity="0" stroke="#ffffff" stroke-width="7" stroke-opacity="1"></use></g></g><g><g><use xlink:href="#gyZ9Z47X5" opacity="1" fill-opacity="0" stroke="#ffffff" stroke-width="7" stroke-opacity="1"></use></g></g><g><use xlink:href="#abUbJ3l6M" opacity="1" fill="#2eb1aa" fill-opacity="0"></use><g><use xlink:href="#abUbJ3l6M" opacity="1" fill-opacity="0" stroke="#ffffff" stroke-width="7" stroke-opacity="1"></use></g></g><g><use xlink:href="#cVeiQefG6" opacity="1" fill="#2eb1aa" fill-opacity="0"></use><g><use xlink:href="#cVeiQefG6" opacity="1" fill-opacity="0" stroke="#ffffff" stroke-width="7" stroke-opacity="1"></use></g></g><g><use xlink:href="#e7sySTdob" opacity="1" fill="#2eb1aa" fill-opacity="0"></use><g><use xlink:href="#e7sySTdob" opacity="1" fill-opacity="0" stroke="#ffffff" stroke-width="7" stroke-opacity="1"></use></g></g><g><use xlink:href="#a1oeoSzuZ4" opacity="1" fill="#2eb1aa" fill-opacity="0"></use><g><use xlink:href="#a1oeoSzuZ4" opacity="1" fill-opacity="0" stroke="#ffffff" stroke-width="7" stroke-opacity="1"></use></g></g><g><use xlink:href="#c1e2vBhAFc" opacity="1" fill="#2eb1aa" fill-opacity="0"></use><g><use xlink:href="#c1e2vBhAFc" opacity="1" fill-opacity="0" stroke="#ffffff" stroke-width="7" stroke-opacity="1"></use></g></g><g><g><use xlink:href="#e2D9JSIvOZ" opacity="1" fill-opacity="0" stroke="#ffffff" stroke-width="7" stroke-opacity="1"></use></g></g><g><g><use xlink:href="#a4gQIL4bky" opacity="1" fill-opacity="0" stroke="#ffffff" stroke-width="7" stroke-opacity="1"></use></g></g><g><g><use xlink:href="#bA613aZQD" opacity="1" fill-opacity="0" stroke="#ffffff" stroke-width="7" stroke-opacity="1"></use></g></g><g><g><use xlink:href="#i1K5yS3LVi" opacity="1" fill-opacity="0" stroke="#ffffff" stroke-width="7" stroke-opacity="1"></use></g></g><g><g><use xlink:href="#fddi6Rsp7" opacity="1" fill-opacity="0" stroke="#ffffff" stroke-width="7" stroke-opacity="1"></use></g></g><g><g><use xlink:href="#ezUFWhYpX" opacity="1" fill-opacity="0" stroke="#ffffff" stroke-width="7" stroke-opacity="1"></use></g></g><g><g><use xlink:href="#cvELO44fZ" opacity="1" fill-opacity="0" stroke="#ffffff" stroke-width="7" stroke-opacity="1"></use></g></g><g><g><use xlink:href="#a2aejMdiDx" opacity="1" fill-opacity="0" stroke="#ffffff" stroke-width="7" stroke-opacity="1"></use></g></g></g></svg>